/* XPM */
static char * freicoin32_xpm[] = {
"32 32 616 2",
"  	c None",
". 	c #938F85",
"+ 	c #97958B",
"@ 	c #8B8880",
"# 	c #7D7A72",
"$ 	c #75726B",
"% 	c #747269",
"& 	c #7B786F",
"* 	c #8B887E",
"= 	c #949085",
"- 	c #9B988E",
"; 	c #878276",
"> 	c #898578",
", 	c #757167",
"' 	c #6F6D65",
") 	c #75726C",
"! 	c #807E76",
"~ 	c #88857A",
"{ 	c #908D82",
"] 	c #938F84",
"^ 	c #908D83",
"/ 	c #7F7C73",
"( 	c #74716A",
"_ 	c #76746B",
": 	c #86837A",
"< 	c #A09D92",
"[ 	c #8A867B",
"} 	c #77736A",
"| 	c #6A665F",
"1 	c #868277",
"2 	c #8A867A",
"3 	c #949086",
"4 	c #8C887D",
"5 	c #8A887C",
"6 	c #888477",
"7 	c #8E8B81",
"8 	c #8F8B80",
"9 	c #918D82",
"0 	c #939085",
"a 	c #999589",
"b 	c #8D897E",
"c 	c #716E65",
"d 	c #88857C",
"e 	c #A09E94",
"f 	c #72706B",
"g 	c #7F7B71",
"h 	c #8B877C",
"i 	c #888377",
"j 	c #837F73",
"k 	c #817D72",
"l 	c #848279",
"m 	c #817E76",
"n 	c #8E8B84",
"o 	c #908E84",
"p 	c #8F8B7F",
"q 	c #969388",
"r 	c #9A978D",
"s 	c #89857A",
"t 	c #737169",
"u 	c #8F8B82",
"v 	c #6D6A64",
"w 	c #949087",
"x 	c #8C887E",
"y 	c #89867B",
"z 	c #817B6E",
"A 	c #8A7E64",
"B 	c #907E5C",
"C 	c #9A855C",
"D 	c #A18B5F",
"E 	c #A18B5D",
"F 	c #9C875B",
"G 	c #978762",
"H 	c #93886D",
"I 	c #8E8A7D",
"J 	c #939084",
"K 	c #959287",
"L 	c #928F82",
"M 	c #99968A",
"N 	c #6B6961",
"O 	c #9B988C",
"P 	c #888479",
"Q 	c #65625B",
"R 	c #908B81",
"S 	c #928E85",
"T 	c #8E8A80",
"U 	c #958768",
"V 	c #A18A5D",
"W 	c #A38E62",
"X 	c #A28D62",
"Y 	c #9C865C",
"Z 	c #A69369",
"` 	c #A89469",
" .	c #AB986D",
"..	c #A99467",
"+.	c #A99364",
"@.	c #9E9173",
"#.	c #929086",
"$.	c #98968A",
"%.	c #A5A197",
"&.	c #6C6A62",
"*.	c #A09D91",
"=.	c #858074",
"-.	c #66645D",
";.	c #878177",
">.	c #878379",
",.	c #878279",
"'.	c #898272",
").	c #A18C62",
"!.	c #A28D61",
"~.	c #9F895F",
"{.	c #A9956A",
"].	c #9F8B5F",
"^.	c #A18D63",
"/.	c #A08B62",
"(.	c #9F8C61",
"_.	c #A18C5F",
":.	c #A69062",
"<.	c #AC986C",
"[.	c #A28F67",
"}.	c #9B9688",
"|.	c #959185",
"1.	c #979488",
"2.	c #9D9A8F",
"3.	c #A09C91",
"4.	c #888277",
"5.	c #6F6B63",
"6.	c #827D75",
"7.	c #858177",
"8.	c #868379",
"9.	c #867F6E",
"0.	c #9E885D",
"a.	c #9F895E",
"b.	c #9D865C",
"c.	c #9D875E",
"d.	c #9C865D",
"e.	c #A48E63",
"f.	c #A18B60",
"g.	c #A18D61",
"h.	c #A08C60",
"i.	c #A49064",
"j.	c #A69266",
"k.	c #AB986B",
"l.	c #AE996B",
"m.	c #AD996A",
"n.	c #B19D71",
"o.	c #9A9587",
"p.	c #9C998E",
"q.	c #9A978B",
"r.	c #848178",
"s.	c #868177",
"t.	c #67645D",
"u.	c #847F75",
"v.	c #827D72",
"w.	c #9A855B",
"x.	c #A18A5E",
"y.	c #7A7263",
"z.	c #7B776E",
"A.	c #78746B",
"B.	c #78736A",
"C.	c #7A766C",
"D.	c #767268",
"E.	c #79746B",
"F.	c #7B7770",
"G.	c #9C8962",
"H.	c #A69163",
"I.	c #868175",
"J.	c #827A67",
"K.	c #B09B6D",
"L.	c #AA966A",
"M.	c #949185",
"N.	c #9C998D",
"O.	c #77746C",
"P.	c #A5A296",
"Q.	c #878076",
"R.	c #6B6760",
"S.	c #858075",
"T.	c #837E73",
"U.	c #817C72",
"V.	c #948361",
"W.	c #9D875D",
"X.	c #646362",
"Y.	c #676767",
"Z.	c #707070",
"`.	c #6F6F6F",
" +	c #6B6B6B",
".+	c #6E6E6E",
"++	c #767676",
"@+	c #7A7A7A",
"#+	c #767779",
"$+	c #9D8B64",
"%+	c #7A7C7F",
"&+	c #77736B",
"*+	c #B19D6E",
"=+	c #AD996C",
"-+	c #A19271",
";+	c #9D998F",
">+	c #9D998E",
",+	c #838077",
"'+	c #8E897F",
")+	c #6B6862",
"!+	c #8A857B",
"~+	c #89847B",
"{+	c #867C6C",
"]+	c #A69064",
"^+	c #A48E62",
"/+	c #636261",
"(+	c #7D7D7D",
"_+	c #797979",
":+	c #7B7B7B",
"<+	c #787878",
"[+	c #7A7B7D",
"}+	c #A29068",
"|+	c #A79264",
"1+	c #817D75",
"2+	c #B09C6C",
"3+	c #AF9A6E",
"4+	c #B4A070",
"5+	c #999486",
"6+	c #7B7970",
"7+	c #A3A095",
"8+	c #837E75",
"9+	c #716D65",
"0+	c #868178",
"a+	c #8B877F",
"b+	c #998A6A",
"c+	c #A79267",
"d+	c #A48F65",
"e+	c #A38C5F",
"f+	c #71706E",
"g+	c #767677",
"h+	c #827D73",
"i+	c #7A756A",
"j+	c #7D776D",
"k+	c #807A6F",
"l+	c #847E73",
"m+	c #827C71",
"n+	c #888276",
"o+	c #878278",
"p+	c #A29067",
"q+	c #A89364",
"r+	c #797A7D",
"s+	c #7E7B72",
"t+	c #B29E6F",
"u+	c #B19E71",
"v+	c #B39F72",
"w+	c #A5997B",
"x+	c #9B978B",
"y+	c #7A776E",
"z+	c #A19F94",
"A+	c #716D66",
"B+	c #827D74",
"C+	c #858179",
"D+	c #A08C61",
"E+	c #A48F64",
"F+	c #A68F63",
"G+	c #747271",
"H+	c #7B7C7E",
"I+	c #99855F",
"J+	c #9F885D",
"K+	c #9B865C",
"L+	c #9D885E",
"M+	c #A38F62",
"N+	c #A28D60",
"O+	c #A69264",
"P+	c #A18D60",
"Q+	c #A79162",
"R+	c #76777A",
"S+	c #807C74",
"T+	c #B7A376",
"U+	c #B8A579",
"V+	c #B7A477",
"W+	c #B2A077",
"X+	c #9A988F",
"Y+	c #979489",
"Z+	c #88867C",
"`+	c #69655D",
" @	c #837E72",
".@	c #837D70",
"+@	c #A79064",
"@@	c #A79167",
"#@	c #AD9769",
"$@	c #6C6B6A",
"%@	c #7F8080",
"&@	c #847C6C",
"*@	c #817866",
"=@	c #847C6A",
"-@	c #908877",
";@	c #A08E67",
">@	c #9E895D",
",@	c #9C8F73",
"'@	c #918771",
")@	c #948A74",
"!@	c #8F846D",
"~@	c #6B6C6D",
"{@	c #7C7870",
"]@	c #B5A072",
"^@	c #B5A176",
"/@	c #B8A478",
"(@	c #BCA87A",
"_@	c #9A988E",
":@	c #9F9D93",
"<@	c #A29F93",
"[@	c #7C7A73",
"}@	c #6C6860",
"|@	c #888378",
"1@	c #888379",
"2@	c #898171",
"3@	c #A59063",
"4@	c #A58F64",
"5@	c #A68F61",
"6@	c #757473",
"7@	c #616161",
"8@	c #7C7C7C",
"9@	c #77787A",
"0@	c #9A8865",
"a@	c #A18B5E",
"b@	c #867F71",
"c@	c #828282",
"d@	c #8A8A8A",
"e@	c #747474",
"f@	c #7B7870",
"g@	c #B19C6D",
"h@	c #B5A276",
"i@	c #B9A479",
"j@	c #BAA577",
"k@	c #9D988B",
"l@	c #9F9C93",
"m@	c #A7A59A",
"n@	c #807E77",
"o@	c #8C877E",
"p@	c #6B6860",
"q@	c #8D897F",
"r@	c #968E7D",
"s@	c #A48E61",
"t@	c #A89267",
"u@	c #AB9567",
"v@	c #747472",
"w@	c #868686",
"x@	c #6C6C6C",
"y@	c #727272",
"z@	c #747577",
"A@	c #998763",
"B@	c #898274",
"C@	c #89857D",
"D@	c #AF9B6D",
"E@	c #B7A274",
"F@	c #989383",
"G@	c #9C998F",
"H@	c #A29F94",
"I@	c #7D7A73",
"J@	c #8F8B81",
"K@	c #6C6962",
"L@	c #8C8778",
"M@	c #A58F61",
"N@	c #A89268",
"O@	c #A89162",
"P@	c #757573",
"Q@	c #7E7E7E",
"R@	c #7D7C79",
"S@	c #6C6B68",
"T@	c #6F6E6B",
"U@	c #72716F",
"V@	c #9C8A65",
"W@	c #A48E60",
"X@	c #898275",
"Y@	c #7D7D7E",
"Z@	c #7F7F7F",
"`@	c #757575",
" #	c #86837B",
".#	c #AF996B",
"+#	c #B19D6F",
"@#	c #B29E72",
"##	c #B8A376",
"$#	c #979286",
"%#	c #9F9C92",
"&#	c #7B7871",
"*#	c #6D6A63",
"=#	c #8D887E",
"-#	c #8A867D",
";#	c #88847B",
">#	c #A89569",
",#	c #A89266",
"'#	c #B09B6E",
")#	c #706F6D",
"!#	c #757678",
"~#	c #A9956B",
"{#	c #AC9667",
"]#	c #AA9364",
"^#	c #A89163",
"/#	c #A59062",
"(#	c #AB976C",
"_#	c #AA9466",
":#	c #A89160",
"<#	c #A89262",
"[#	c #AE9765",
"}#	c #6A6C6F",
"|#	c #837F77",
"1#	c #B29D70",
"2#	c #B09C6F",
"3#	c #97958C",
"4#	c #A19E94",
"5#	c #A39F96",
"6#	c #7A766F",
"7#	c #8D8980",
"8#	c #8D8A82",
"9#	c #9C8A64",
"0#	c #A59065",
"a#	c #AE986A",
"b#	c #6C6B69",
"c#	c #A08D64",
"d#	c #9D8A63",
"e#	c #9A8A6C",
"f#	c #988A6C",
"g#	c #968768",
"h#	c #97896B",
"i#	c #998B6C",
"j#	c #948668",
"k#	c #928564",
"l#	c #6E6F71",
"m#	c #B09B6C",
"n#	c #B19C6E",
"o#	c #A59672",
"p#	c #98958B",
"q#	c #989488",
"r#	c #7D7B72",
"s#	c #9C9990",
"t#	c #9B9890",
"u#	c #706F69",
"v#	c #8F8C84",
"w#	c #948971",
"x#	c #A99368",
"y#	c #AA9569",
"z#	c #AE9769",
"A#	c #A28E65",
"B#	c #8C8066",
"C#	c #737475",
"D#	c #79797A",
"E#	c #797A7B",
"F#	c #777778",
"G#	c #757576",
"H#	c #686869",
"I#	c #636364",
"J#	c #736F67",
"K#	c #B29D6E",
"L#	c #B5A175",
"M#	c #9C937F",
"N#	c #9A978C",
"O#	c #78766E",
"P#	c #A4A197",
"Q#	c #96928A",
"R#	c #727069",
"S#	c #97948C",
"T#	c #8C887F",
"U#	c #A18D62",
"V#	c #AB956B",
"W#	c #A99365",
"X#	c #9F8B62",
"Y#	c #8C7F65",
"Z#	c #838383",
"`#	c #858585",
" $	c #777777",
".$	c #B39E72",
"+$	c #AE9C73",
"@$	c #98958D",
"#$	c #74726B",
"$$	c #908D86",
"%$	c #7A7770",
"&$	c #908C83",
"*$	c #8F8672",
"=$	c #AB9569",
"-$	c #AC9668",
";$	c #747475",
">$	c #6A6C71",
",$	c #A18D65",
"'$	c #867A62",
")$	c #68696B",
"!$	c #707173",
"~$	c #737476",
"{$	c #717274",
"]$	c #656668",
"^$	c #717375",
"/$	c #6F7072",
"($	c #6F7073",
"_$	c #696A6D",
":$	c #78766F",
"<$	c #B49F71",
"[$	c #999280",
"}$	c #9B968D",
"|$	c #99978C",
"1$	c #79766D",
"2$	c #9B998F",
"3$	c #9A9790",
"4$	c #706E68",
"5$	c #9A968E",
"6$	c #95928A",
"7$	c #9C8E70",
"8$	c #AC976B",
"9$	c #AD976C",
"0$	c #AB976B",
"a$	c #A6936A",
"b$	c #A59269",
"c$	c #A7946A",
"d$	c #A8946A",
"e$	c #A8956B",
"f$	c #AC986F",
"g$	c #AD9971",
"h$	c #AB976E",
"i$	c #AB986E",
"j$	c #B39F71",
"k$	c #9F9278",
"l$	c #9E9B92",
"m$	c #75736C",
"n$	c #A09E95",
"o$	c #706D67",
"p$	c #98948C",
"q$	c #949088",
"r$	c #928F88",
"s$	c #9D8E70",
"t$	c #B09B70",
"u$	c #AD986D",
"v$	c #AF9A70",
"w$	c #B29E74",
"x$	c #AD986E",
"y$	c #AE996D",
"z$	c #AD986C",
"A$	c #AF996D",
"B$	c #B29E73",
"C$	c #B29D71",
"D$	c #B59E71",
"E$	c #A3977B",
"F$	c #9F9D95",
"G$	c #A4A199",
"H$	c #73716B",
"I$	c #87847D",
"J$	c #7E7B73",
"K$	c #98958C",
"L$	c #948F86",
"M$	c #918E85",
"N$	c #A99367",
"O$	c #AB966A",
"P$	c #AE9A6F",
"Q$	c #AC986E",
"R$	c #AA966B",
"S$	c #AE996F",
"T$	c #B09C70",
"U$	c #B19C70",
"V$	c #B49E73",
"W$	c #B6A276",
"X$	c #9C947F",
"Y$	c #9F9B92",
"Z$	c #A4A097",
"`$	c #A09C93",
" %	c #807D76",
".%	c #86837C",
"+%	c #838079",
"@%	c #9C978F",
"#%	c #938E84",
"$%	c #9A8D72",
"%%	c #B39E73",
"&%	c #AC986D",
"*%	c #B39F73",
"=%	c #B8A375",
"-%	c #AF9B72",
";%	c #A3977E",
">%	c #A29F96",
",%	c #817E77",
"'%	c #9A968D",
")%	c #76726C",
"!%	c #97938A",
"~%	c #979389",
"{%	c #959288",
"]%	c #94918A",
"^%	c #938E81",
"/%	c #9B9380",
"(%	c #9A917A",
"_%	c #9D927B",
":%	c #A09783",
"<%	c #999487",
"[%	c #9B988F",
"}%	c #A09D94",
"|%	c #9F9B91",
"1%	c #A4A098",
"2%	c #ABA79F",
"3%	c #76736D",
"4%	c #706C66",
"5%	c #848078",
"6%	c #99958D",
"7%	c #99968D",
"8%	c #97948B",
"9%	c #96938A",
"0%	c #A09C94",
"a%	c #9E9A90",
"b%	c #A09C92",
"c%	c #A8A49B",
"d%	c #8A8780",
"e%	c #A7A49B",
"f%	c #9B978E",
"g%	c #77736C",
"h%	c #99968C",
"i%	c #9C988E",
"j%	c #A29E94",
"k%	c #99948B",
"l%	c #79756F",
"m%	c #A9A59C",
"n%	c #9E9A91",
"o%	c #A19E95",
"p%	c #77746D",
"q%	c #787670",
"r%	c #77756E",
"s%	c #7B7971",
"t%	c #87847C",
"u%	c #A8A49C",
"v%	c #A7A39A",
"w%	c #9F9C94",
"x%	c #A19D94",
"y%	c #A39F97",
"                                                                ",
"                      . + @ # $ % & * = -                       ",
"                ; > , ' ) ! ~ { ] ^ / ( _ : <                   ",
"              [ } | 1 2 3 4 5 6 7 8 9 0 a b c d e               ",
"            b f g h ; i j k l m : n o { p q r s t <             ",
"          u v w [ x y z A B C D E F G H I J K L M N O           ",
"        P Q R S T 7 U V W X Y X Z `  ...+.@.#.q $.%.&.*.        ",
"      =.-.;.>.,.'.).!.~.~.{.].^./.Z (._.:.<.[.}.|.1.2.t 3.      ",
"    4.5.6.7.8.9.0.a.b.c.d.e.f.g.h.g.i.j.k.l.m.n.o.p.q.0 r.      ",
"    s.t.u.7.v.w.x.y.z.A.B.C.D.E.C.} F.G.H.I.J.K.L.M.N.< O.P.    ",
"  Q.R.S.T.U.V.W._.X.Y.Z.`. +.+++++@+#+$+H.%+&+*+=+-+;+>+p.,+    ",
"  '+)+!+~+{+]+~.^+/+`.(+ +Y.`._+:+<+[+}+|+%+1+2+3+4+5+O < 6+7+  ",
"  8+9+0+a+b+c+d+e+f+g+h+i+j+k+l+m+n+o+p+q+r+s+t+u+v+w+x+q.y+z+  ",
"  A+B+7.C+D+E+X F+G+H+I+J+Y K+L+M+N+O+P+Q+R+S+T+U+V+W+X+p.Y+Z+  ",
"S.`+P  @.@+@@@c+#@$@%@&@*@=@-@;@>@,@'@)@!@~@{@]@^@/@(@_@:@<@[@  ",
"!+}@|@1@2@F+3@4@5@6@@+7@.+8@9@0@a@b@c@d@_+e@f@g@h@i@j@k@l@m@n@  ",
"o@p@q@o+r@s@c+t@u@v@w@x@y@y@z@A@E B@w@w@y@++C@D@n.v+E@F@G@H@I@  ",
"J@K@q@~+L@M@N@^+O@P@Q@R@S@T@U@V@W@X@Y@Z@`@y@ #.#+#@###$#%#7+&#  ",
"  *#=#-#;#M@>#,#'#)#!#~#{#]#^#/#(#_#:#<#[#}#|#g@1#2#K.3#4#5#!   ",
"  m 6#7#8#9#0#,#a#b#9@c#d#e#f#g#h#i#j#h#k#l#f@m#n#v+o#p#q#r#s#  ",
"  t#u#v#q@w#x#y#z#v@[+A#B#C#D#E#F#G#H#I#H#<+J#K#L#E@M#N#;+O#P#  ",
"  Q#R#S#T#C@U#V#W#)#9@X#Y#.+_+Z#`#_+x@ +++ $C+m#.$+$@$N#*.#$    ",
"    $$%$&$T *$=$-$;$>$,$'$)$!$~${$]$^$/$($_$:$<$]@[$}$|$1$2$    ",
"    3$4$5$S 6$7$8$8$=$9$0$a$b$c$d$e$d$f$g$h$i$j$k$- l$< m$n$    ",
"      S#o$p$q$r$s$t$u$u$v$w$0$x$y$z$3+A$B$C$D$E$F$>+G$H$P#      ",
"        I$J$K$L$M$)@N$O$P${.Q$R$S$T$U$V$W$C$X$Y$Z$`$ %@$        ",
"        K$.%+%@%L$#%R $%c$@#%%&%n.*%=%-%;%p#%#`$>%,%u           ",
"          '%C@)%'%!%~%{%]%^%/%(%_%:%<%[%}%|%1%2%3%S#            ",
"              p$4%5%'%6%7%@$8%9%r 0%a%%#b%c%d%3%e%              ",
"                f%a+( g%{%h%h%[%i%b%j%k%%$l%7%m%                ",
"                    n%o%,%p%q%r%:$%$s%t%u%v%                    ",
"                            w%x%Z$y%                            "};
